<svg width="512" height="512" viewBox="0 0 512 512" fill="none" xmlns="http://www.w3.org/2000/svg">
<path fill-rule="evenodd" clip-rule="evenodd" d="M235.599 12.1488C224.065 18.8309 196.504 34.723 174.354 47.4649C152.204 60.2068 130.379 72.8264 125.855 75.5072C121.332 78.188 101.191 89.6453 81.0966 100.967C61.0024 112.289 41.96 123.194 38.7805 125.202L33 128.851L33.3883 256.826L33.7766 384.801L104.704 425.188C143.714 447.402 177.225 466.757 179.171 468.2C181.118 469.641 199.288 480.087 219.547 491.411L256.382 512L294.015 491.092C314.713 479.593 331.989 469.695 332.406 469.096C333.063 468.156 405.076 426.827 443.347 405.425C450.452 401.452 461.394 395.173 467.663 391.471L479.062 384.741L479.45 257.318C479.725 166.856 479.357 129.314 478.178 127.894C477.264 126.793 471.276 123.039 464.872 119.552C458.466 116.065 449.464 110.963 444.867 108.214C440.27 105.466 419.069 93.3208 397.756 81.2279C376.441 69.1336 335.954 45.9104 307.787 29.6194L256.571 0L235.599 12.1488ZM290.683 30.9491C363.199 72.6096 382.062 83.3834 424.746 107.525L469.081 132.601L468.752 256.266L468.424 379.931L432.709 400.44C413.067 411.719 378.188 431.59 355.203 444.594C332.216 457.599 313.068 468.733 312.65 469.338C311.267 471.336 256.409 501.309 255.262 500.692C244.236 494.754 200.744 469.881 200.188 469.196C199.771 468.68 193.274 464.761 185.751 460.487C178.229 456.212 143.35 436.339 108.244 416.321L44.4148 379.927V256.343V132.758L86.9675 108.548C110.372 95.2317 157.868 68.0126 192.514 48.0593C227.162 28.1061 255.917 11.7818 256.414 11.7818C256.911 11.7818 272.333 20.4067 290.683 30.9491ZM249.58 30.5249C224.529 44.9849 103.143 114.402 82.0287 126.342L55.8136 141.167V167.514V193.862L67.5914 200.695C74.0687 204.453 86.55 211.594 95.3265 216.562C104.103 221.531 117.781 229.343 125.721 233.923C155.152 250.898 191.911 271.52 194.453 272.481C196.865 273.395 197.11 271.364 197.493 247.313L197.909 221.151L233.623 200.901C253.266 189.764 270.149 179.941 271.142 179.071C273.705 176.827 291.181 166.694 347.281 134.923C389.837 110.822 395.99 106.89 393.633 105.306C392.139 104.302 384.628 99.8819 376.942 95.4844L362.969 87.4871L322.231 110.656C229.89 163.175 203.912 178.095 202.469 179.442C201.633 180.223 192.4 185.731 181.952 191.684L161.988 202.79V208.774L162.016 215.51L152.987 210.697L143.959 205.885V198.572V191.26L154.217 185.577C159.859 182.45 165.235 178.816 165.235 178.816C165.235 178.816 195.115 161.002 283.774 110.665C309.268 96.1905 333.079 82.6694 336.688 80.6162L343.248 76.8822L336.688 72.7572C333.079 70.4886 325.505 66.0631 319.856 62.9222L309.586 57.2122L271.225 79.1255C250.125 91.1772 212.688 112.494 188.03 126.496C108.132 172.206 108.132 172.206 108.132 172.206V184.174L94.1696 176.195C90.8451 174.2 90.768 174.2 90.768 174.2V159.911L125.342 140.307C144.358 129.524 163.677 118.495 168.274 115.798C172.871 113.101 190.311 103.232 207.027 93.8674C223.745 84.5031 241.184 74.6216 245.781 71.9088C250.378 69.1961 262.204 62.3371 272.061 56.667C281.918 50.9968 289.662 46.0381 289.271 45.6471C287.989 44.3652 257.502 26.9784 256.569 26.9971C256.07 27.0077 252.923 28.5954 249.58 30.5249ZM354.608 146.264C324.609 163.361 298.964 178.291 297.618 179.442C296.273 180.593 289.872 184.421 283.395 187.949C268.633 195.989 267.821 194.289 293.277 208.62L314.929 220.812L315.689 335.14C316.107 398.02 317.018 449.57 317.715 449.693C318.412 449.818 326.106 445.939 334.812 441.074L350.643 432.228V317.334V202.441L345.284 199.555C338.531 195.918 338.93 194.897 349.364 189.092L357.852 184.37L364.088 188.497L370.325 192.624L370.381 306.12C370.411 368.543 370.599 419.775 370.798 419.97C370.997 420.164 378.511 416.219 387.496 411.203L403.834 402.082V286.843V171.602L398.515 168.315C391.686 164.094 391.734 163.933 401.601 157.961L409.919 152.927L415.995 156.341L422.07 159.756V274.977C422.07 338.348 422.54 390.197 423.114 390.197C424.925 390.197 454.692 373.039 455.861 371.321C456.476 370.419 456.989 318.273 457.002 255.441L457.025 141.203L434.181 128.164C421.617 120.992 410.846 115.137 410.245 115.152C409.645 115.166 384.608 129.168 354.608 146.264ZM233.623 216.113L211.587 228.773L211.174 256.145L210.76 283.516L233.728 296.396L256.696 309.277L272.134 300.527C280.626 295.715 290.993 289.767 295.173 287.312L302.771 282.847L303.186 256.864L303.602 230.882L299.387 227.968C294.364 224.495 257.071 203.228 256.238 203.362C255.921 203.413 245.742 209.152 233.623 216.113ZM55.8136 290.419C55.8136 364.295 56.0038 370.133 58.4731 372.262C60.8335 374.297 106.755 400.604 192.59 449.095C208.054 457.83 222.571 466.284 224.85 467.881C231.076 472.241 255.153 485.94 256.591 485.94C257.931 485.94 278.601 474.103 293.653 464.715L302.771 459.028L303.171 409.415C303.392 382.128 303.05 359.815 302.412 359.833C301.774 359.849 297.016 362.414 291.838 365.531C252.149 389.435 258.216 387.695 243.766 379.309C237.769 375.829 232.522 372.536 232.103 371.993C231.685 371.451 207.408 357.447 178.153 340.874C148.898 324.3 121.74 308.808 117.801 306.446C108.997 301.166 109.281 300.664 109.229 321.538C109.179 342.123 106.663 339.059 138.177 356.799C151.298 364.186 163.949 371.592 166.292 373.257C168.637 374.922 189.94 387.308 213.634 400.78L256.714 425.277L261.972 422.175C264.865 420.469 267.533 419.073 267.904 419.073C268.274 419.073 268.577 423.868 268.577 429.731V440.388L262.079 443.546L255.58 446.703L246.5 441.401C241.507 438.485 212.461 421.906 181.952 404.561C151.443 387.215 126.14 372.591 125.721 372.063C124.744 370.823 105.619 359.645 97.2267 355.405L90.768 352.143V310.38C90.768 287.411 91.1337 268.618 91.5805 268.618C92.5659 268.618 100.34 273.497 101.406 274.784C102.175 275.713 110.723 280.609 194.11 327.874C219.603 342.325 243.721 356.104 247.704 358.495C257.012 364.083 255.543 364.358 274.394 353.503C283.315 348.367 293.52 342.526 297.072 340.522L303.532 336.878V318.795C303.532 308.849 303.005 300.388 302.363 299.99C301.721 299.594 291.211 305.041 279.009 312.095L256.822 324.922L229.646 309.519C214.698 301.047 196.313 290.674 188.791 286.466C181.268 282.259 173.061 277.323 170.554 275.497C166.715 272.701 140.798 257.67 113.563 242.446C109.802 240.343 95.7932 232.378 82.433 224.745C69.0728 217.112 57.6181 210.867 56.9771 210.867C56.3375 210.867 55.8136 246.666 55.8136 290.419Z" fill="#651128"/>
</svg>
