<svg width="1900" height="500" viewBox="0 0 1900 500" fill="none" xmlns="http://www.w3.org/2000/svg">
<path fill-rule="evenodd" clip-rule="evenodd" d="M221.28 59.4913C212.269 64.7117 190.737 77.1274 173.432 87.082C156.128 97.0366 139.078 106.896 135.543 108.99C132.009 111.084 116.274 120.035 100.575 128.88C84.8769 137.726 70 146.245 67.516 147.814L63 150.665L63.3034 250.645L63.6067 350.625L119.019 382.178C149.496 399.533 175.675 414.654 177.196 415.781C178.717 416.907 192.913 425.068 208.74 433.915L237.517 450L266.918 433.666C283.088 424.682 296.585 416.949 296.911 416.481C297.425 415.747 353.684 383.458 383.583 366.739C389.134 363.634 397.683 358.729 402.581 355.836L411.486 350.579L411.789 251.03C412.004 180.356 411.717 151.026 410.795 149.917C410.081 149.057 405.403 146.124 400.4 143.4C395.396 140.676 388.362 136.69 384.771 134.542C381.179 132.395 364.617 122.907 347.965 113.459C331.313 104.011 299.683 85.8675 277.677 73.1401L237.665 50L221.28 59.4913ZM264.315 74.179C320.968 106.726 335.704 115.143 369.052 134.004L403.688 153.595L403.431 250.208L403.175 346.821L375.272 362.844C359.927 371.656 332.678 387.18 314.721 397.339C296.763 407.499 281.803 416.198 281.477 416.67C280.396 418.231 237.538 441.647 236.642 441.165C228.028 436.527 194.05 417.094 193.616 416.559C193.29 416.156 188.214 413.095 182.337 409.756C176.46 406.416 149.211 390.889 121.784 375.251L71.9178 346.818V250.268V153.717L105.162 134.803C123.447 124.4 160.553 103.135 187.621 87.5464C214.689 71.9579 237.154 59.2045 237.542 59.2045C237.931 59.2045 249.979 65.9427 264.315 74.179ZM232.203 73.8476C212.632 85.1445 117.799 139.376 101.304 148.705L80.8231 160.287V180.87V201.455L90.0245 206.793C95.0849 209.729 104.836 215.307 111.693 219.189C118.549 223.071 129.235 229.175 135.438 232.752C158.431 246.014 187.149 262.125 189.135 262.876C191.02 263.59 191.211 262.003 191.51 243.213L191.835 222.774L219.737 206.954C235.083 198.253 248.273 190.579 249.049 189.899C251.051 188.146 264.704 180.229 308.532 155.408C341.779 136.58 346.586 133.508 344.745 132.27C343.577 131.486 337.709 128.033 331.705 124.597L320.788 118.349L288.962 136.45C216.821 177.481 196.525 189.137 195.398 190.189C194.744 190.799 187.531 195.102 179.369 199.753L163.772 208.43V213.105L163.794 218.367L156.74 214.607L149.687 210.848V205.135V199.422L157.701 194.982C162.109 192.539 166.309 189.7 166.309 189.7C166.309 189.7 189.653 175.783 258.917 136.457C278.835 125.149 297.437 114.585 300.257 112.981L305.381 110.064L300.257 106.842C297.437 105.069 291.52 101.612 287.106 99.158L279.083 94.697L249.113 111.817C232.629 121.232 203.381 137.886 184.117 148.825C121.697 184.536 121.697 184.536 121.697 184.536V193.886L110.789 187.652C108.192 186.094 108.131 186.094 108.131 186.094V174.93L135.142 159.615C149.998 151.191 165.091 142.574 168.683 140.467C172.274 138.36 185.899 130.65 198.959 123.334C212.02 116.018 225.644 108.298 229.235 106.179C232.827 104.059 242.065 98.7009 249.767 94.2711C257.467 89.8413 263.517 85.9673 263.212 85.6618C262.21 84.6603 238.392 71.0769 237.664 71.0915C237.273 71.0998 234.815 72.3402 232.203 73.8476ZM314.257 164.269C290.819 177.626 270.784 189.29 269.733 190.189C268.682 191.088 263.682 194.079 258.621 196.835C247.088 203.116 246.454 201.788 266.341 212.985L283.257 222.509L283.85 311.828C284.178 360.953 284.889 401.226 285.434 401.323C285.978 401.421 291.989 398.39 298.791 394.589L311.159 387.678V297.918V208.157L306.972 205.902C301.696 203.061 302.008 202.263 310.159 197.728L316.79 194.039L321.663 197.263L326.535 200.488L326.579 289.157C326.603 337.924 326.749 377.949 326.905 378.102C327.06 378.254 332.931 375.171 339.95 371.252L352.714 364.127V274.096V184.064L348.558 181.496C343.224 178.198 343.261 178.073 350.97 173.407L357.468 169.474L362.215 172.142L366.961 174.81V264.826C366.961 314.334 367.328 354.841 367.777 354.841C369.192 354.841 392.447 341.436 393.36 340.094C393.84 339.39 394.241 298.651 394.252 249.564L394.269 160.315L376.422 150.128C366.607 144.525 358.192 139.951 357.723 139.962C357.254 139.974 337.694 150.912 314.257 164.269ZM219.737 218.839L202.521 228.729L202.198 250.113L201.875 271.497L219.819 281.559L237.762 291.623L249.824 284.787C256.458 281.027 264.557 276.38 267.823 274.463L273.759 270.974L274.083 250.675L274.408 230.376L271.115 228.1C267.191 225.387 238.055 208.772 237.405 208.877C237.157 208.916 229.205 213.4 219.737 218.839ZM80.8231 276.889C80.8231 334.606 80.9717 339.166 82.9009 340.83C84.7449 342.419 120.621 362.972 187.68 400.856C199.761 407.68 211.102 414.284 212.883 415.532C217.747 418.938 236.557 429.641 237.68 429.641C238.727 429.641 254.876 420.393 266.635 413.058L273.759 408.616L274.071 369.855C274.244 348.537 273.977 331.106 273.478 331.119C272.98 331.132 269.262 333.136 265.217 335.571C234.21 354.246 238.95 352.887 227.661 346.335C222.976 343.616 218.876 341.044 218.549 340.62C218.223 340.196 199.256 329.256 176.401 316.308C153.545 303.359 132.328 291.256 129.251 289.411C122.372 285.286 122.595 284.894 122.554 301.201C122.515 317.283 120.549 314.89 145.17 328.75C155.42 334.521 165.304 340.306 167.135 341.607C168.966 342.908 185.609 352.585 204.12 363.11L237.777 382.248L241.885 379.824C244.144 378.491 246.229 377.401 246.519 377.401C246.808 377.401 247.045 381.147 247.045 385.727V394.053L241.968 396.52L236.891 398.987L229.797 394.845C225.896 392.566 203.204 379.614 179.369 366.063C155.534 352.512 135.766 341.086 135.438 340.674C134.675 339.706 119.734 330.973 113.177 327.66L108.131 325.111V292.484C108.131 274.54 108.417 259.858 108.766 259.858C109.536 259.858 115.609 263.67 116.442 264.675C117.043 265.4 123.721 269.226 188.867 306.152C208.784 317.441 227.626 328.206 230.737 330.074C238.01 334.44 236.862 334.655 251.589 326.174C258.559 322.162 266.531 317.598 269.306 316.033L274.353 313.186V299.058C274.353 291.288 273.942 284.678 273.44 284.367C272.938 284.058 264.728 288.313 255.195 293.824L237.861 303.845L216.629 291.812C204.951 285.193 190.589 277.089 184.712 273.802C178.835 270.515 172.423 266.659 170.464 265.232C167.465 263.047 147.217 251.305 125.94 239.411C123.002 237.768 112.057 231.545 101.62 225.582C91.1819 219.619 82.2329 214.74 81.7321 214.74C81.2324 214.74 80.8231 242.708 80.8231 276.889Z" fill="#651128"/>
<path d="M647.43 244.589L647.024 262.665C646.821 268.555 646.821 274.445 646.414 280.132C645.805 290.896 645.196 299.833 637.072 307.55C632.197 312.222 625.901 314.456 619.402 315.878C599.091 320.143 575.125 319.534 554.409 319.534C545.472 319.534 536.536 319.534 527.599 319.127C513.585 318.721 494.29 318.315 482.307 310.191C476.824 306.535 473.777 302.067 471.543 295.77C467.278 283.178 467.887 260.634 467.887 247.635C467.887 239.105 468.09 230.574 468.699 222.044C470.121 201.937 476.62 187.72 497.743 183.658C517.444 179.799 541.816 180.002 561.721 180.002C571.673 180.002 581.422 180.002 591.17 180.611C605.794 181.22 629.354 182.033 639.712 194.016C647.43 202.749 647.024 217.982 647.227 228.95H605.997C605.997 225.091 606.2 220.216 602.747 217.576C600.716 216.154 598.888 215.545 596.451 215.139C592.795 214.529 588.733 214.529 585.077 214.326C576.141 213.92 567.204 213.92 558.268 213.92C550.956 213.92 543.441 214.123 536.13 214.326C530.24 214.529 519.881 214.732 515.007 218.591C508.304 223.872 509.32 241.745 509.32 249.26C509.32 257.181 508.914 267.945 510.945 275.663C511.757 278.71 512.57 280.538 515.007 282.772C519.881 287.24 532.271 286.834 538.364 286.834C544.863 286.834 551.362 287.037 557.862 287.037C565.376 287.037 572.891 286.834 580.406 286.834C586.499 286.834 602.138 287.646 605.794 281.147C607.216 278.507 607.216 274.851 607.216 272.007V267.742H552.987V240.73H647.227C647.227 241.948 647.43 243.37 647.43 244.589Z" fill="black"/>
<path d="M1090.2 317.503H1049.58L1050.59 216.154H1043.69L992.708 317.503H958.384L907.405 216.154H900.093L901.109 317.503H860.488V182.033H935.23L975.444 269.976L1015.86 182.033H1090.2V317.503Z" fill="black"/>
<path d="M1296.86 282.163C1296.86 315.878 1279.6 317.096 1251.17 317.299C1242.23 317.299 1233.09 317.503 1224.15 317.503H1126.66V182.033H1223.95C1232.07 182.033 1240 182.236 1248.12 182.236C1276.96 182.439 1291.79 184.267 1291.79 217.576C1291.79 232.809 1289.55 243.979 1273.51 248.651C1276.55 249.26 1279.6 249.869 1282.44 250.885C1295.65 255.759 1296.86 269.976 1296.86 282.163ZM1251.78 224.278C1251.78 212.701 1243.24 213.92 1234.51 213.92H1165.86V235.449H1225.58C1231.47 235.449 1237.56 235.652 1243.45 234.84C1249.95 234.027 1251.78 230.371 1251.78 224.278ZM1256.85 273.023C1256.85 269.773 1256.45 266.524 1253.6 264.493C1250.35 262.055 1241.42 262.665 1237.56 262.665C1233.09 262.665 1228.82 262.462 1224.36 262.462H1165.86V285.006H1236.75C1247.31 285.006 1256.85 286.225 1256.85 273.023Z" fill="black"/>
<path d="M1360.46 317.503H1324.51V182.033H1360.46V317.503Z" fill="black"/>
<path d="M1523.02 268.555C1523.02 274.445 1522.82 280.538 1522.41 286.428C1521.6 295.77 1519.16 304.098 1511.85 310.394C1499.46 321.158 1470.22 319.94 1454.98 319.94C1439.14 319.94 1411.11 321.361 1398.12 310.394C1394.46 307.347 1392.23 304.098 1390.4 299.833C1386.34 289.881 1386.95 277.288 1386.95 266.727C1386.95 261.446 1386.95 255.962 1387.55 250.682C1388.37 241.542 1391.82 233.418 1399.33 227.731C1411.52 218.388 1440.56 218.998 1454.98 218.998C1469.61 218.998 1498.25 218.388 1510.63 227.731C1514.09 230.371 1516.32 233.012 1518.35 236.871C1523.63 246.213 1523.02 258.196 1523.02 268.555ZM1487.07 267.945C1487.07 262.462 1486.87 255.353 1482.61 251.291C1477.33 246.213 1461.89 246.01 1455.19 246.01C1448.69 246.01 1441.99 246.213 1435.69 247.432C1423.1 249.869 1422.89 259.618 1422.89 270.586C1422.89 275.866 1422.69 282.975 1426.55 287.037C1432.03 292.927 1447.88 292.927 1455.19 292.927C1462.09 292.927 1469.4 292.927 1476.11 291.099C1487.28 288.053 1487.07 277.897 1487.07 267.945Z" fill="black"/>
<path d="M1679.01 260.431H1642.46C1640.83 245.604 1624.38 246.01 1612.8 246.01C1606.51 246.01 1593.31 246.213 1588.23 250.479C1583.35 254.541 1583.35 265.102 1583.35 270.789C1583.35 276.273 1583.56 283.584 1587.82 287.646C1592.9 292.521 1606.91 292.927 1613.41 292.927C1617.88 292.927 1622.15 292.927 1626.61 292.318C1635.55 291.099 1640.83 288.459 1642.25 278.913H1678.81C1678.41 289.677 1677.8 300.036 1669.88 308.16C1661.55 316.893 1648.75 318.721 1637.18 319.33C1628.44 319.737 1619.91 319.94 1611.18 319.94C1595.54 319.94 1573.2 320.346 1559.79 311.003C1546.79 301.864 1547.4 282.772 1547.4 268.758C1547.4 254.947 1547.2 238.495 1558.78 228.747C1571.37 218.185 1597.57 218.998 1613.01 218.998C1628.44 218.998 1655.25 218.388 1668.05 228.747C1671.5 231.59 1673.73 234.433 1675.56 238.699C1678.61 245.807 1678.81 252.713 1679.01 260.431Z" fill="black"/>
<path d="M1835.75 317.503H1788.02L1749.43 278.913H1740.29V317.503H1704.34V182.033H1740.29V252.916H1748.01L1780.91 221.435H1829.05L1779.29 266.321L1835.75 317.503Z" fill="black"/>
<path fill-rule="evenodd" clip-rule="evenodd" d="M679.996 317.503H830.699V285.006H720.617V263.274H824.402V233.621H679.996V317.503Z" fill="black"/>
<path d="M679.996 182.033V213.92H829.886V182.033H679.996Z" fill="black"/>
<path d="M679.996 182.033V213.92H829.886V182.033H679.996Z" fill="#651128"/>
</svg>
