<svg width="1500" height="750" viewBox="0 0 1500 750" fill="none" xmlns="http://www.w3.org/2000/svg">
<path fill-rule="evenodd" clip-rule="evenodd" d="M728.599 53.1488C717.065 59.8309 689.504 75.723 667.354 88.4649C645.204 101.207 623.379 113.826 618.855 116.507C614.332 119.188 594.191 130.645 574.097 141.967C554.002 153.289 534.96 164.194 531.781 166.202L526 169.851L526.388 297.826L526.777 425.801L597.704 466.188C636.714 488.402 670.225 507.757 672.171 509.2C674.118 510.641 692.288 521.087 712.547 532.411L749.382 553L787.015 532.092C807.713 520.593 824.989 510.695 825.406 510.096C826.063 509.156 898.076 467.827 936.347 446.425C943.452 442.452 954.394 436.173 960.663 432.471L972.062 425.741L972.45 298.318C972.725 207.856 972.357 170.314 971.178 168.894C970.264 167.793 964.276 164.039 957.872 160.552C951.466 157.065 942.464 151.963 937.867 149.214C933.27 146.466 912.069 134.321 890.756 122.228C869.441 110.134 828.954 86.9104 800.787 70.6194L749.571 41L728.599 53.1488ZM783.683 71.9491C856.199 113.61 875.062 124.383 917.746 148.525L962.081 173.601L961.752 297.266L961.424 420.931L925.709 441.44C906.067 452.719 871.188 472.59 848.203 485.594C825.216 498.599 806.068 509.733 805.65 510.338C804.267 512.336 749.409 542.309 748.262 541.692C737.236 535.754 693.744 510.881 693.188 510.196C692.771 509.68 686.274 505.761 678.751 501.487C671.229 497.212 636.35 477.339 601.244 457.321L537.415 420.927V297.343V173.758L579.968 149.548C603.372 136.232 650.868 109.013 685.514 89.0593C720.162 69.1061 748.917 52.7818 749.414 52.7818C749.911 52.7818 765.333 61.4067 783.683 71.9491ZM742.58 71.5249C717.529 85.9849 596.143 155.402 575.029 167.342L548.814 182.167V208.514V234.862L560.591 241.695C567.069 245.453 579.55 252.594 588.326 257.562C597.103 262.531 610.781 270.343 618.721 274.923C648.152 291.898 684.911 312.52 687.453 313.481C689.865 314.395 690.11 312.364 690.493 288.313L690.909 262.151L726.623 241.901C746.266 230.764 763.149 220.941 764.142 220.071C766.705 217.827 784.181 207.694 840.281 175.923C882.837 151.822 888.99 147.89 886.633 146.306C885.139 145.302 877.628 140.882 869.942 136.484L855.969 128.487L815.231 151.656C722.89 204.175 696.912 219.095 695.469 220.442C694.633 221.223 685.4 226.731 674.952 232.684L654.988 243.79V249.774L655.016 256.51L645.987 251.697L636.959 246.885V239.572V232.26L647.217 226.577C652.859 223.45 658.235 219.816 658.235 219.816C658.235 219.816 688.115 202.002 776.774 151.665C802.268 137.19 826.079 123.669 829.688 121.616L836.248 117.882L829.688 113.757C826.079 111.489 818.505 107.063 812.856 103.922L802.586 98.2122L764.225 120.126C743.125 132.177 705.688 153.494 681.03 167.496C601.132 213.206 601.132 213.206 601.132 213.206V225.174L587.17 217.195C583.845 215.2 583.768 215.2 583.768 215.2V200.911L618.342 181.307C637.358 170.524 656.677 159.495 661.274 156.798C665.871 154.101 683.311 144.232 700.027 134.867C716.745 125.503 734.184 115.622 738.781 112.909C743.378 110.196 755.204 103.337 765.061 97.667C774.918 91.9968 782.662 87.0381 782.271 86.6471C780.989 85.3652 750.502 67.9784 749.569 67.9971C749.07 68.0077 745.923 69.5954 742.58 71.5249ZM847.608 187.264C817.609 204.361 791.964 219.291 790.618 220.442C789.273 221.593 782.872 225.421 776.395 228.949C761.633 236.989 760.821 235.289 786.277 249.62L807.929 261.812L808.689 376.14C809.107 439.02 810.018 490.57 810.715 490.693C811.412 490.818 819.106 486.939 827.812 482.074L843.643 473.228V358.334V243.441L838.284 240.555C831.531 236.918 831.93 235.897 842.364 230.092L850.852 225.37L857.088 229.497L863.325 233.624L863.381 347.12C863.411 409.543 863.599 460.775 863.798 460.97C863.997 461.164 871.511 457.219 880.496 452.203L896.834 443.082V327.843V212.602L891.515 209.315C884.686 205.094 884.734 204.933 894.601 198.961L902.919 193.927L908.995 197.341L915.07 200.756V315.977C915.07 379.348 915.54 431.197 916.114 431.197C917.925 431.197 947.692 414.039 948.861 412.321C949.476 411.419 949.989 359.273 950.002 296.441L950.025 182.203L927.181 169.164C914.617 161.992 903.846 156.137 903.245 156.152C902.645 156.166 877.608 170.168 847.608 187.264ZM726.623 257.113L704.587 269.773L704.174 297.145L703.76 324.516L726.728 337.396L749.696 350.277L765.134 341.527C773.626 336.715 783.993 330.767 788.173 328.312L795.771 323.847L796.186 297.864L796.602 271.882L792.387 268.968C787.364 265.495 750.071 244.228 749.238 244.362C748.921 244.413 738.742 250.152 726.623 257.113ZM548.814 331.419C548.814 405.295 549.004 411.133 551.473 413.262C553.833 415.297 599.755 441.604 685.59 490.095C701.054 498.83 715.571 507.284 717.85 508.881C724.076 513.241 748.153 526.94 749.591 526.94C750.931 526.94 771.601 515.103 786.653 505.715L795.771 500.028L796.171 450.415C796.392 423.128 796.05 400.815 795.412 400.833C794.774 400.849 790.016 403.414 784.838 406.531C745.149 430.435 751.216 428.695 736.766 420.309C730.769 416.829 725.522 413.536 725.103 412.993C724.685 412.451 700.408 398.447 671.153 381.874C641.898 365.3 614.74 349.808 610.801 347.446C601.997 342.166 602.281 341.664 602.229 362.538C602.179 383.123 599.663 380.059 631.177 397.799C644.298 405.186 656.949 412.592 659.292 414.257C661.637 415.922 682.94 428.308 706.634 441.78L749.714 466.277L754.972 463.175C757.865 461.469 760.533 460.073 760.904 460.073C761.274 460.073 761.577 464.868 761.577 470.731V481.388L755.079 484.546L748.58 487.703L739.5 482.401C734.507 479.485 705.461 462.906 674.952 445.561C644.443 428.215 619.14 413.591 618.721 413.063C617.744 411.823 598.619 400.645 590.227 396.405L583.768 393.143V351.38C583.768 328.411 584.134 309.618 584.581 309.618C585.566 309.618 593.34 314.497 594.406 315.784C595.175 316.713 603.723 321.609 687.11 368.874C712.603 383.325 736.721 397.104 740.704 399.495C750.012 405.083 748.543 405.358 767.394 394.503C776.315 389.367 786.52 383.526 790.072 381.522L796.532 377.878V359.795C796.532 349.849 796.005 341.388 795.363 340.99C794.721 340.594 784.211 346.041 772.009 353.095L749.822 365.922L722.646 350.519C707.698 342.047 689.313 331.674 681.791 327.466C674.268 323.259 666.061 318.323 663.554 316.497C659.715 313.701 633.798 298.67 606.563 283.446C602.802 281.343 588.793 273.378 575.433 265.745C562.073 258.112 550.618 251.867 549.977 251.867C549.338 251.867 548.814 287.666 548.814 331.419Z" fill="#651128"/>
<path d="M317.92 643.362L317.572 658.855C317.397 663.904 317.397 668.953 317.049 673.827C316.527 683.054 316.005 690.714 309.041 697.329C304.863 701.333 299.466 703.248 293.896 704.467C276.487 708.122 255.944 707.6 238.187 707.6C230.527 707.6 222.868 707.6 215.208 707.252C203.196 706.904 186.657 706.556 176.386 699.592C171.686 696.459 169.074 692.629 167.159 687.232C163.504 676.438 164.026 657.115 164.026 645.973C164.026 638.661 164.2 631.35 164.722 624.038C165.941 606.803 171.512 594.617 189.617 591.135C206.503 587.827 227.394 588.002 244.455 588.002C252.985 588.002 261.341 588.002 269.697 588.524C282.232 589.046 302.426 589.742 311.304 600.014C317.92 607.499 317.572 620.556 317.746 629.957H282.406C282.406 626.649 282.58 622.471 279.62 620.208C277.879 618.989 276.313 618.467 274.224 618.119C271.09 617.597 267.608 617.597 264.475 617.422C256.815 617.074 249.155 617.074 241.495 617.074C235.228 617.074 228.787 617.248 222.519 617.422C217.471 617.597 208.592 617.771 204.414 621.078C198.669 625.605 199.54 640.924 199.54 647.366C199.54 654.155 199.192 663.382 200.932 669.997C201.629 672.608 202.325 674.175 204.414 676.09C208.592 679.92 219.212 679.572 224.434 679.572C230.005 679.572 235.576 679.746 241.147 679.746C247.588 679.746 254.029 679.572 260.471 679.572C265.693 679.572 279.098 680.268 282.232 674.698C283.45 672.434 283.45 669.301 283.45 666.864V663.208H236.969V640.054H317.746C317.746 641.098 317.92 642.317 317.92 643.362Z" fill="black"/>
<path d="M697.435 705.859H662.617L663.487 618.989H657.569L613.872 705.859H584.451L540.755 618.989H534.488L535.359 705.859H500.541V589.742H564.605L599.075 665.123L633.718 589.742H697.435V705.859Z" fill="black"/>
<path d="M874.578 675.568C874.578 704.467 859.78 705.511 835.408 705.685C827.748 705.685 819.914 705.859 812.254 705.859H728.692V589.742H812.08C819.043 589.742 825.833 589.917 832.796 589.917C857.517 590.091 870.225 591.657 870.225 620.208C870.225 633.265 868.31 642.839 854.557 646.843C857.169 647.366 859.78 647.888 862.217 648.758C873.533 652.936 874.578 665.123 874.578 675.568ZM835.93 625.953C835.93 616.03 828.618 617.074 821.133 617.074H762.291V635.528H813.473C818.521 635.528 823.744 635.702 828.792 635.005C834.363 634.309 835.93 631.175 835.93 625.953ZM840.282 667.734C840.282 664.949 839.934 662.163 837.497 660.422C834.711 658.333 827.052 658.855 823.744 658.855C819.914 658.855 816.258 658.681 812.428 658.681H762.291V678.005H823.047C832.1 678.005 840.282 679.05 840.282 667.734Z" fill="black"/>
<path d="M929.092 705.859H898.278V589.742H929.092V705.859Z" fill="black"/>
<path d="M1068.43 663.904C1068.43 668.953 1068.25 674.175 1067.91 679.224C1067.21 687.232 1065.12 694.369 1058.85 699.766C1048.23 708.993 1023.17 707.948 1010.11 707.948C996.531 707.948 972.506 709.167 961.365 699.766C958.231 697.155 956.316 694.369 954.749 690.714C951.267 682.183 951.79 671.39 951.79 662.337C951.79 657.811 951.79 653.111 952.312 648.584C953.008 640.75 955.968 633.787 962.409 628.912C972.854 620.904 997.749 621.427 1010.11 621.427C1022.64 621.427 1047.19 620.904 1057.81 628.912C1060.77 631.175 1062.68 633.439 1064.42 636.746C1068.95 644.754 1068.43 655.026 1068.43 663.904ZM1037.62 663.382C1037.62 658.681 1037.44 652.588 1033.79 649.107C1029.26 644.754 1016.03 644.58 1010.28 644.58C1004.71 644.58 998.968 644.754 993.571 645.799C982.777 647.888 982.603 656.244 982.603 665.645C982.603 670.171 982.429 676.264 985.737 679.746C990.437 684.795 1004.02 684.795 1010.28 684.795C1016.2 684.795 1022.47 684.795 1028.21 683.228C1037.79 680.616 1037.62 671.912 1037.62 663.382Z" fill="black"/>
<path d="M1202.14 656.941H1170.8C1169.41 644.232 1155.31 644.58 1145.38 644.58C1139.99 644.58 1128.67 644.754 1124.32 648.41C1120.14 651.892 1120.14 660.945 1120.14 665.819C1120.14 670.519 1120.31 676.787 1123.97 680.268C1128.32 684.446 1140.33 684.795 1145.9 684.795C1149.73 684.795 1153.39 684.795 1157.22 684.272C1164.88 683.228 1169.41 680.965 1170.63 672.783H1201.96C1201.61 682.009 1201.09 690.888 1194.3 697.851C1187.16 705.337 1176.2 706.904 1166.27 707.426C1158.79 707.774 1151.48 707.948 1143.99 707.948C1130.59 707.948 1111.44 708.297 1099.95 700.288C1088.8 692.454 1089.33 676.09 1089.33 664.078C1089.33 652.24 1089.15 638.139 1099.08 629.783C1109.87 620.73 1132.33 621.427 1145.56 621.427C1158.79 621.427 1181.77 620.904 1192.73 629.783C1195.69 632.22 1197.61 634.657 1199.18 638.313C1201.79 644.406 1201.96 650.325 1202.14 656.941Z" fill="black"/>
<path d="M1336.48 705.859H1295.57L1262.49 672.783H1254.66V705.859H1223.84V589.742H1254.66V650.499H1261.27L1289.47 623.516H1330.73L1288.08 661.989L1336.48 705.859Z" fill="black"/>
<path fill-rule="evenodd" clip-rule="evenodd" d="M345.834 705.859H475.007V678.005H380.651V659.378H469.61V633.961H345.834V705.859Z" fill="black"/>
<path d="M345.834 589.742V617.074H474.311V589.742H345.834Z" fill="black"/>
<path d="M345.834 589.742V617.074H474.311V589.742H345.834Z" fill="#651128"/>
</svg>
