<svg width="420" height="218" viewBox="0 0 420 218" fill="none" xmlns="http://www.w3.org/2000/svg">
<g clip-path="url(#clip0_60_130)">
<path fill-rule="evenodd" clip-rule="evenodd" d="M20.4484 0.630209C13.883 1.92248 5.94806 8.15185 2.61207 14.6321C-0.227383 20.1481 0.0923124 25.4011 0.343986 66.7865C0.582811 106.053 -0.0293665 106.743 1.66508 110.403C5.44018 118.558 12.0192 124.106 20.5285 126.31C27.3841 128.087 99.9394 128.07 107.01 126.29C115.641 124.118 121.974 118.895 125.662 110.91C127.485 106.959 127.63 102.367 127.63 95.6294V77.6521L145.406 77.6173L145.605 102.367L145.804 127.117H263.176V98.0217H174.902V88.1974V77.6521L245.794 77.4662V48.9001H174.902V38.6979V28.4958H263.176V0.156374H145.804L145.605 24.5282L145.405 48.9001H108.854C78.6779 48.9001 70.9826 49.1863 70.9826 49.1863V77.6521H97.8127V98.0217H63.4248H29.037V63.2587V28.4958H63.619H98.2011C98.2011 28.4958 98.2011 37.0028 98.2011 39.1083H127.63V29.2515C127.596 20.5373 127.432 19.4717 125.517 15.505C123.129 10.5558 117.309 4.86978 111.741 2.04566V2.04566C109.291 0.803417 106.583 0.152114 103.836 0.143949C89.9575 0.102691 81.0049 0.0760772 66.07 0.0316796C41.8474 -0.0401135 22.5714 0.212297 20.4484 0.630209ZM275.603 0.156374L275.798 127.117H305.273V45.188C310.362 51.3003 347.223 94.2432 347.223 94.2432C347.223 94.2432 365.258 73.5463 389.165 44.8419L389.671 127.117H419.018C419.018 70.7751 419.018 0.237233 419.018 0.237233C418.36 -0.0151764 397.073 0.237233 389.671 0.237233C380.65 11.1604 349.31 47.2164 347.181 49.6558L304.542 0.156374H275.603ZM145.406 77.6173L174.902 77.6521V48.9001H145.405L145.406 77.6173ZM0.343975 139.635C0.0205136 214.816 0.343976 141.865 0.0205078 217.047C18.8696 217.036 64.789 217.075 66.8258 216.609C70.836 215.689 74.7191 212.305 76.7265 207.979C77.8806 205.491 77.6621 203.492 77.6757 194.71C77.6901 185.286 77.9667 183.178 76.4899 179.924C74.3869 175.29 74.7615 178.377 74.7894 163.268L74.7615 150.298C74.5069 141.03 70.7452 139.635 61.9133 139.635H0.343975ZM88.1697 140.213L87.6097 217.047H165.205V203.066H102.347V140.213H88.1697ZM178.476 141.401C174.21 143.49 171.391 146.516 170.307 150.166C169.807 151.851 169.607 162.842 169.756 180.455L170.307 203.066C170.307 211.283 174.898 216.005 179.927 217.047C197.895 217.207 233.786 217.241 236.106 216.658C240.49 215.556 244.052 212.821 245.952 209.098C247.372 206.315 247.456 204.616 247.456 178.883C247.456 153.512 247.356 151.423 246.01 148.813C243.949 144.816 241.719 142.688 237.856 141.032C234.746 139.699 232.29 140.191 208.135 140.213C182.227 140.237 182.042 139.653 178.476 141.401ZM267.235 140.213C262.997 141.675 259.11 146.288 257.878 150.35C257.164 152.706 256.903 160.442 256.903 179.261V204.956L258.793 208.729C259.989 211.119 261.883 213.336 263.959 214.775L267.235 217.047H300.992H334.749V210.246V203.444L272.487 203.05L272.75 154.662C272.75 154.662 317.844 154.87 334.749 154.662V139.586C334.749 139.586 271.981 138.577 267.235 140.213ZM344.574 139.586V179.024V217.047H351.376H358.586V201.182V186.063H376.97L390.137 201.77L403.243 217.047H410.971C423.251 217.047 422.445 217.517 407.918 200.193C389.763 178.541 390.14 179.033 390.814 177.828C391.416 176.753 399.022 167.63 412.405 151.931C419.044 144.142 421.636 139.586 418.957 139.586C416.279 139.586 403.985 139.586 403.985 139.586C402.355 141.353 395.105 149.581 391.498 153.945C387.89 158.309 378.718 170.048 376.97 172.082H358.586V155.68V139.586H344.574ZM14.6773 154.438V170.571H59.8691V154.438H14.6773ZM184.475 154.449C184.198 154.725 183.971 165.778 183.971 179.01V203.066H208.135H232.299L232.509 179.223C232.635 164.87 232.433 155.093 232.001 154.662C231.19 153.852 185.278 153.646 184.475 154.449ZM14.6773 185.307V203.066H62.669V185.307H14.6773Z" fill="#283952"/>
</g>
<defs>
<clipPath id="clip0_60_130">
<rect width="420" height="217.171" fill="white"/>
</clipPath>
</defs>
</svg>
