<svg width="1173" height="120" viewBox="0 0 1173 120" fill="none" xmlns="http://www.w3.org/2000/svg">
<path d="M153.92 55.3616L153.572 70.8555C153.397 75.904 153.397 80.9526 153.049 85.8271C152.527 95.0537 152.005 102.714 145.041 109.329C140.863 113.333 135.466 115.248 129.896 116.467C112.487 120.122 91.9444 119.6 74.1874 119.6C66.5275 119.6 58.8676 119.6 51.2077 119.252C39.1956 118.904 22.6573 118.556 12.3861 111.592C7.68567 108.459 5.07435 104.629 3.15938 99.2319C-0.496474 88.4384 0.025791 69.1146 0.025791 57.973C0.025791 50.6612 0.199878 43.3495 0.722144 36.0378C1.94076 18.8031 7.51158 6.61693 25.6168 3.13517C42.5033 -0.172507 63.3939 0.00157898 80.4545 0.00157898C88.9849 0.00157898 97.3411 0.001579 105.697 0.523847C118.232 1.04612 138.426 1.74246 147.304 12.0137C153.92 19.4995 153.572 32.5561 153.746 41.9568H118.406C118.406 38.6492 118.58 34.471 115.62 32.2079C113.879 30.9893 112.313 30.467 110.224 30.1188C107.09 29.5966 103.608 29.5966 100.475 29.4225C92.8148 29.0743 85.1549 29.0743 77.495 29.0743C71.2279 29.0743 64.7866 29.2484 58.5194 29.4225C53.4709 29.5966 44.5924 29.7707 40.4143 33.0783C34.6693 37.6046 35.5398 52.9244 35.5398 59.3656C35.5398 66.1551 35.1916 75.3818 36.9325 81.9971C37.6288 84.6084 38.3252 86.1752 40.4143 88.0902C44.5924 91.9201 55.2117 91.572 60.4344 91.572C66.0052 91.572 71.576 91.7461 77.1469 91.7461C83.5881 91.7461 90.0294 91.572 96.4707 91.572C101.693 91.572 115.098 92.2683 118.232 86.6975C119.45 84.4344 119.45 81.3008 119.45 78.8635V75.2077H72.9687V52.0539H153.746C153.746 53.0985 153.92 54.3171 153.92 55.3616Z" fill="black"/>
<path d="M533.435 117.859H498.617L499.487 30.9893H493.569L449.872 117.859H420.451L376.755 30.9893H370.488L371.359 117.859H336.541V1.74246H400.605L435.075 77.1227L469.718 1.74246H533.435V117.859Z" fill="black"/>
<path d="M710.578 87.5679C710.578 116.467 695.78 117.511 671.408 117.685C663.748 117.685 655.914 117.859 648.254 117.859H564.692V1.74246H648.08C655.043 1.74246 661.833 1.91656 668.796 1.91656C693.517 2.09064 706.225 3.65744 706.225 32.2079C706.225 45.2645 704.31 54.8394 690.557 58.8434C693.169 59.3657 695.78 59.8879 698.217 60.7584C709.533 64.9365 710.578 77.1226 710.578 87.5679ZM671.93 37.9528C671.93 28.0298 664.618 29.0743 657.133 29.0743H598.291V47.5277H649.473C654.521 47.5277 659.744 47.7017 664.792 47.0054C670.363 46.309 671.93 43.1755 671.93 37.9528ZM676.282 79.734C676.282 76.9486 675.934 74.1631 673.497 72.4223C670.711 70.3332 663.052 70.8555 659.744 70.8555C655.914 70.8555 652.258 70.6814 648.428 70.6814H598.291V90.0052H659.047C668.1 90.0052 676.282 91.0497 676.282 79.734Z" fill="black"/>
<path d="M765.092 117.859H734.278V1.74246H765.092V117.859Z" fill="black"/>
<path d="M904.429 75.904C904.429 80.9526 904.255 86.1752 903.907 91.2238C903.21 99.2319 901.121 106.369 894.854 111.766C884.235 120.993 859.166 119.948 846.109 119.948C832.531 119.948 808.506 121.167 797.365 111.766C794.231 109.155 792.316 106.369 790.749 102.714C787.267 94.1833 787.79 83.3898 787.79 74.3372C787.79 69.8109 787.79 65.1106 788.312 60.5843C789.008 52.7503 791.968 45.7868 798.409 40.9123C808.854 32.9042 833.749 33.4265 846.109 33.4265C858.644 33.4265 883.19 32.9042 893.809 40.9123C896.769 43.1755 898.684 45.4386 900.425 48.7463C904.951 56.7543 904.429 67.0255 904.429 75.904ZM873.615 75.3818C873.615 70.6814 873.441 64.5883 869.785 61.1065C865.259 56.7543 852.028 56.5802 846.283 56.5802C840.713 56.5802 834.968 56.7543 829.571 57.7989C818.777 59.8879 818.603 68.2441 818.603 77.6449C818.603 82.1712 818.429 88.2643 821.737 91.7461C826.437 96.7946 840.016 96.7946 846.283 96.7946C852.202 96.7946 858.47 96.7946 864.214 95.2278C873.789 92.6165 873.615 83.9121 873.615 75.3818Z" fill="black"/>
<path d="M1038.14 68.9405H1006.8C1005.41 56.2321 991.306 56.5802 981.383 56.5802C975.986 56.5802 964.67 56.7543 960.318 60.4102C956.14 63.892 956.14 72.9445 956.14 77.819C956.14 82.5194 956.314 88.7866 959.97 92.2683C964.322 96.4464 976.334 96.7946 981.905 96.7946C985.735 96.7946 989.391 96.7946 993.221 96.2724C1000.88 95.2278 1005.41 92.9647 1006.63 84.7825H1037.96C1037.61 94.0092 1037.09 102.888 1030.3 109.851C1023.16 117.337 1012.2 118.904 1002.27 119.426C994.787 119.774 987.476 119.948 979.99 119.948C966.585 119.948 947.435 120.297 935.946 112.288C924.804 104.454 925.326 88.0902 925.326 76.0781C925.326 64.2401 925.152 50.139 935.075 41.7827C945.869 32.7302 968.326 33.4265 981.557 33.4265C994.787 33.4265 1017.77 32.9042 1028.73 41.7827C1031.69 44.22 1033.61 46.6572 1035.18 50.3131C1037.79 56.4062 1037.96 62.3252 1038.14 68.9405Z" fill="black"/>
<path d="M1172.48 117.859H1131.57L1098.49 84.7825H1090.66V117.859H1059.84V1.74246H1090.66V62.4992H1097.27L1125.47 35.5156H1166.73L1124.08 73.9891L1172.48 117.859Z" fill="black"/>
<path fill-rule="evenodd" clip-rule="evenodd" d="M181.834 117.859H311.007V90.0052H216.651V71.3777H305.61V45.9609H181.834V117.859Z" fill="black"/>
<path d="M181.834 1.74246V29.0743H310.311V1.74246H181.834Z" fill="black"/>
<path d="M181.834 1.74246V29.0743H310.311V1.74246H181.834Z" fill="#651128"/>
</svg>
